<svg width="378" height="359" viewBox="0 0 378 359" fill="none" xmlns="http://www.w3.org/2000/svg">
<path fill-rule="evenodd" clip-rule="evenodd" d="M201.156 18.9782C240.094 17.0199 285.304 -15.1911 314.911 10.1198C345.141 35.9637 314.89 87.7216 326.135 125.824C336.839 162.09 378.683 185.855 377.932 223.653C377.104 265.39 355.682 307.539 322.036 332.35C288.287 357.237 241.575 365.267 201.156 354.01C164.398 343.773 152.896 297.334 121.037 276.371C86.5304 253.667 31.1681 263.76 10.0833 228.288C-11.0309 192.766 5.16044 146.101 20.9006 107.904C35.7809 71.7943 60.361 38.4624 95.4378 21.1578C127.826 5.17953 165.07 20.793 201.156 18.9782Z" fill="#003049"/>
</svg>
