<svg width="35" height="406" viewBox="0 0 35 406" fill="none" xmlns="http://www.w3.org/2000/svg">
<line x1="16.5" y1="406" x2="16.5" y2="116" stroke="#C1121F" stroke-width="3"/>
<path d="M7 6.048L22.72 6.048V0.744L24.592 0.744L24.592 13.608H22.72L22.72 8.304L7 8.304L7 6.048ZM7 16.7672L24.592 16.7672V18.9992L7 18.9992L7 16.7672ZM6.664 30.4464C6.664 26.0544 10.072 22.7904 15.784 22.7904C21.448 22.7904 24.904 26.1264 24.904 30.5904C24.904 32.7264 23.872 34.3824 22.744 35.4144L21.304 34.1904C22.288 33.2784 22.96 32.1024 22.96 30.6144C22.96 27.2784 20.224 25.0704 15.832 25.0704C11.392 25.0704 8.632 27.1824 8.632 30.5424C8.632 32.1984 9.352 33.4944 10.6 34.6224L9.208 35.8224C7.576 34.4304 6.664 32.7264 6.664 30.4464ZM7 39.1031L24.592 39.1031L24.592 41.3351L15.736 41.3351V41.3831L24.592 48.7271V51.2471L17.896 45.7271L7 52.0871V49.6391L16.144 44.3591L12.568 41.3351H7V39.1031ZM7 54.6188L24.592 54.6188L24.592 64.7468H22.72L22.72 56.8508L17.2 56.8508V63.4988H15.304V56.8508H8.872V65.0108H7L7 54.6188ZM7 72.3996L22.72 72.3996V67.0956H24.592V79.9596H22.72V74.6556L7 74.6556V72.3996ZM6.664 86.8658C6.664 84.3938 7.672 82.2578 9.28 80.7218L10.816 82.0418C9.472 83.3138 8.632 85.0898 8.632 86.9138C8.632 89.2178 9.784 90.5858 11.488 90.5858C13.312 90.5858 13.888 89.3138 14.608 87.6578L15.712 85.1378C16.408 83.4818 17.656 81.5618 20.224 81.5618C22.936 81.5618 24.904 83.8898 24.904 87.1058C24.904 89.1938 24.016 91.0418 22.72 92.2657L21.304 91.0898C22.312 90.0098 22.96 88.7138 22.96 87.1058C22.96 85.1138 21.952 83.8178 20.392 83.8178C18.664 83.8178 18.04 85.3538 17.464 86.7218L16.384 89.2178C15.496 91.2818 14.272 92.8418 11.656 92.8418C8.872 92.8418 6.664 90.5618 6.664 86.8658Z" fill="black"/>
</svg>
