<svg width="192" height="150" viewBox="0 0 192 150" fill="none" xmlns="http://www.w3.org/2000/svg">
<path d="M4.33594 118.008C2.80469 118.008 2.03906 117.25 2.03906 115.734V100.359C2.03906 99.5312 2.19531 98.8906 2.50781 98.4375C2.82031 97.9844 3.42969 97.7578 4.33594 97.7578H19.9688C21.5 97.7578 22.2656 98.5156 22.2656 100.031V115.406C22.2656 116.219 22.1094 116.852 21.7969 117.305C21.4844 117.773 20.875 118.008 19.9688 118.008H4.33594ZM5.27344 116.133H19.0312C19.8594 116.133 20.2734 115.727 20.2734 114.914V100.875C20.2734 100.047 19.8594 99.6328 19.0312 99.6328H5.27344C4.44531 99.6328 4.03125 100.047 4.03125 100.875V114.914C4.03125 115.727 4.44531 116.133 5.27344 116.133ZM11.0156 115.828C10.4531 115.828 10.1719 115.531 10.1719 114.938C10.1719 114.719 10.3125 114.516 10.5938 114.328C10.8906 114.125 11.1172 113.977 11.2734 113.883C11.8203 113.57 12.3438 113.227 12.8438 112.852C13.3438 112.461 13.8047 112.023 14.2266 111.539C13.7266 110.383 13.375 109.148 13.1719 107.836C12.9688 106.523 12.8438 105.25 12.7969 104.016H5.53125C5.26562 104.016 5.03125 103.961 4.82812 103.852C4.64062 103.727 4.54688 103.516 4.54688 103.219C4.54688 102.906 4.64062 102.695 4.82812 102.586C5.03125 102.477 5.26562 102.422 5.53125 102.422H12.7031C12.7031 102.234 12.6875 102 12.6562 101.719C12.6406 101.438 12.6406 101.156 12.6562 100.875C12.6719 100.594 12.7422 100.359 12.8672 100.172C13.0078 99.9844 13.2266 99.8906 13.5234 99.8906C13.8828 99.8906 14.1094 100.023 14.2031 100.289C14.3125 100.539 14.3672 100.812 14.3672 101.109C14.3672 101.328 14.3672 101.547 14.3672 101.766C14.3672 101.984 14.3594 102.203 14.3438 102.422H18.6797C18.9453 102.422 19.1719 102.477 19.3594 102.586C19.5625 102.695 19.6641 102.906 19.6641 103.219C19.6641 103.516 19.5625 103.727 19.3594 103.852C19.1719 103.961 18.9453 104.016 18.6797 104.016H14.3906C14.4219 104.625 14.4688 105.281 14.5312 105.984C14.5938 106.688 14.6875 107.391 14.8125 108.094C14.9375 108.781 15.1094 109.414 15.3281 109.992C15.6719 109.398 15.9688 108.797 16.2188 108.188C16.4688 107.562 16.7109 106.938 16.9453 106.312C17.0234 106.109 17.1172 105.922 17.2266 105.75C17.3516 105.562 17.5391 105.469 17.7891 105.469C18.0547 105.469 18.2734 105.523 18.4453 105.633C18.6328 105.742 18.7266 105.945 18.7266 106.242C18.7266 106.492 18.625 106.867 18.4219 107.367C18.2188 107.852 17.9688 108.383 17.6719 108.961C17.375 109.523 17.0781 110.055 16.7812 110.555C16.5 111.039 16.2734 111.406 16.1016 111.656C16.1797 111.781 16.3125 112 16.5 112.312C16.6875 112.609 16.8906 112.891 17.1094 113.156C17.3281 113.406 17.5234 113.531 17.6953 113.531C17.8828 113.531 18.0078 113.406 18.0703 113.156C18.1328 112.891 18.1875 112.594 18.2344 112.266C18.2812 111.938 18.3594 111.648 18.4688 111.398C18.5781 111.133 18.7656 111 19.0312 111C19.5 111 19.7344 111.258 19.7344 111.773C19.7344 112.023 19.7031 112.359 19.6406 112.781C19.5781 113.188 19.4688 113.602 19.3125 114.023C19.1719 114.445 18.9844 114.805 18.75 115.102C18.5312 115.383 18.2578 115.523 17.9297 115.523C17.5234 115.523 17.1328 115.383 16.7578 115.102C16.3828 114.805 16.0469 114.461 15.75 114.07C15.4531 113.664 15.2031 113.312 15 113.016C14.8281 113.203 14.5703 113.453 14.2266 113.766C13.8984 114.078 13.5312 114.398 13.125 114.727C12.7344 115.039 12.3516 115.305 11.9766 115.523C11.6016 115.727 11.2812 115.828 11.0156 115.828ZM17.4141 102.211C17.2578 102.211 17.0625 102.109 16.8281 101.906C16.6094 101.703 16.4141 101.477 16.2422 101.227C16.0703 100.961 15.9844 100.758 15.9844 100.617C15.9844 100.367 16.0625 100.203 16.2188 100.125C16.375 100.031 16.5625 99.9844 16.7812 99.9844C16.9531 99.9844 17.1484 100.086 17.3672 100.289C17.6016 100.477 17.7969 100.695 17.9531 100.945C18.125 101.18 18.2109 101.383 18.2109 101.555C18.2109 101.805 18.1328 101.977 17.9766 102.07C17.8203 102.164 17.6328 102.211 17.4141 102.211ZM7.03125 110.719C5.92188 110.719 5.36719 110.172 5.36719 109.078V106.922C5.36719 105.828 5.92188 105.281 7.03125 105.281H10.0781C11.1875 105.281 11.7422 105.828 11.7422 106.922V109.078C11.7422 110.172 11.1875 110.719 10.0781 110.719H7.03125ZM7.45312 109.336H9.65625C10.0781 109.336 10.2891 109.125 10.2891 108.703V107.297C10.2891 106.875 10.0781 106.664 9.65625 106.664H7.45312C7.03125 106.664 6.82031 106.875 6.82031 107.297V108.703C6.82031 109.125 7.03125 109.336 7.45312 109.336ZM5.27344 114.258C5.00781 114.258 4.82031 114.18 4.71094 114.023C4.60156 113.867 4.54688 113.664 4.54688 113.414C4.54688 113.133 4.64844 112.922 4.85156 112.781C4.92969 112.734 5.10938 112.68 5.39062 112.617C5.6875 112.555 5.98438 112.5 6.28125 112.453C6.57812 112.391 6.77344 112.352 6.86719 112.336C7.61719 112.211 8.36719 112.062 9.11719 111.891C9.86719 111.719 10.6172 111.555 11.3672 111.398C11.3984 111.383 11.4922 111.359 11.6484 111.328C11.8047 111.297 11.8906 111.281 11.9062 111.281C12.3438 111.281 12.5625 111.523 12.5625 112.008C12.5625 112.258 12.4219 112.461 12.1406 112.617C11.8594 112.758 11.5469 112.867 11.2031 112.945C10.8594 113.023 10.5938 113.086 10.4062 113.133C10.1562 113.195 9.78906 113.289 9.30469 113.414C8.82031 113.539 8.30469 113.664 7.75781 113.789C7.21094 113.914 6.70312 114.023 6.23438 114.117C5.78125 114.211 5.46094 114.258 5.27344 114.258ZM26.8828 104.25C26.3203 104.25 26.0391 103.977 26.0391 103.43C26.0391 103.18 26.125 103.008 26.2969 102.914C26.4688 102.82 26.6562 102.742 26.8594 102.68C27.7188 102.445 28.3672 102.141 28.8047 101.766C29.2422 101.391 29.5312 100.984 29.6719 100.547C29.8281 100.109 29.9141 99.6797 29.9297 99.2578C29.9453 98.8203 29.9453 98.4297 29.9297 98.0859C29.9297 97.7266 29.9844 97.4375 30.0938 97.2188C30.2031 97 30.4453 96.8906 30.8203 96.8906C31.1328 96.8906 31.3516 96.9766 31.4766 97.1484C31.6172 97.3203 31.6875 97.5547 31.6875 97.8516C31.6875 98.4297 31.6484 99.0703 31.5703 99.7734C31.4922 100.461 31.3203 101.07 31.0547 101.602C31.2422 101.445 31.4375 101.367 31.6406 101.367C31.7969 101.367 32.0625 101.438 32.4375 101.578C32.8281 101.719 33.2344 101.898 33.6562 102.117C34.0781 102.336 34.4375 102.555 34.7344 102.773C35.0469 102.992 35.2031 103.188 35.2031 103.359C35.2031 103.641 35.1172 103.836 34.9453 103.945C34.7891 104.039 34.5859 104.086 34.3359 104.086C34.1641 104.086 33.9219 103.992 33.6094 103.805C33.2969 103.617 32.9922 103.43 32.6953 103.242C32.3984 103.039 32.1953 102.93 32.0859 102.914C31.9922 102.867 31.8438 102.797 31.6406 102.703C31.4531 102.594 31.2734 102.469 31.1016 102.328C30.9453 102.188 30.8672 102.055 30.8672 101.93C30.6328 102.305 30.2812 102.672 29.8125 103.031C29.3594 103.391 28.8672 103.688 28.3359 103.922C27.8203 104.141 27.3359 104.25 26.8828 104.25ZM36.7734 104.297C36.2422 104.297 35.9766 104.031 35.9766 103.5C35.9766 103.266 36.0547 103.094 36.2109 102.984C36.3828 102.875 36.5703 102.789 36.7734 102.727C37.3047 102.57 37.8203 102.383 38.3203 102.164C38.8203 101.93 39.25 101.594 39.6094 101.156C39.875 100.844 40.0391 100.5 40.1016 100.125C40.1797 99.7344 40.2109 99.3516 40.1953 98.9766C40.1953 98.6016 40.1953 98.2578 40.1953 97.9453C40.2109 97.6328 40.2812 97.3828 40.4062 97.1953C40.5312 96.9922 40.7656 96.8906 41.1094 96.8906C41.6875 96.8906 41.9766 97.2031 41.9766 97.8281C41.9766 98.4219 41.9375 99.0625 41.8594 99.75C41.7812 100.422 41.5938 101.031 41.2969 101.578C41.5 101.438 41.6953 101.367 41.8828 101.367C42.0703 101.367 42.375 101.438 42.7969 101.578C43.2344 101.719 43.6875 101.906 44.1562 102.141C44.6406 102.359 45.0469 102.594 45.375 102.844C45.7188 103.078 45.8906 103.289 45.8906 103.477C45.8906 104.008 45.6484 104.273 45.1641 104.273C45.1016 104.273 44.8984 104.195 44.5547 104.039C44.2109 103.883 43.8281 103.703 43.4062 103.5C43 103.281 42.6328 103.094 42.3047 102.938C41.9766 102.766 41.7969 102.672 41.7656 102.656C41.6406 102.594 41.4844 102.508 41.2969 102.398C41.125 102.289 41.0391 102.148 41.0391 101.977C40.7734 102.336 40.3906 102.695 39.8906 103.055C39.3906 103.414 38.8594 103.711 38.2969 103.945C37.75 104.18 37.2422 104.297 36.7734 104.297ZM44.1094 101.18C43.5781 101.18 43.3125 100.93 43.3125 100.43C43.3125 100.305 43.3906 100.102 43.5469 99.8203C43.7188 99.5391 43.9219 99.2422 44.1562 98.9297C44.3906 98.6016 44.625 98.3281 44.8594 98.1094C45.0938 97.875 45.2812 97.7578 45.4219 97.7578C45.9844 97.7578 46.2656 98.0156 46.2656 98.5312C46.2656 98.7031 46.1875 98.9375 46.0312 99.2344C45.8906 99.5312 45.7031 99.8281 45.4688 100.125C45.2344 100.422 44.9922 100.672 44.7422 100.875C44.5078 101.078 44.2969 101.18 44.1094 101.18ZM26.8594 101.391C26.625 101.391 26.4297 101.336 26.2734 101.227C26.1172 101.117 26.0391 100.938 26.0391 100.688C26.0391 100.562 26.0781 100.422 26.1562 100.266C26.25 100.109 26.3281 99.9766 26.3906 99.8672C26.4844 99.6953 26.5938 99.4609 26.7188 99.1641C26.8438 98.8516 27 98.5703 27.1875 98.3203C27.375 98.0547 27.5938 97.9219 27.8438 97.9219C28.3594 97.9219 28.6172 98.1562 28.6172 98.625C28.6172 98.7812 28.5547 99.0156 28.4297 99.3281C28.3203 99.625 28.1719 99.9375 27.9844 100.266C27.8125 100.578 27.625 100.844 27.4219 101.062C27.2188 101.281 27.0312 101.391 26.8594 101.391ZM36.8672 101.555C36.6328 101.555 36.4375 101.5 36.2812 101.391C36.1406 101.281 36.0703 101.102 36.0703 100.852C36.0703 100.742 36.1328 100.555 36.2578 100.289C36.3984 100.023 36.5391 99.7578 36.6797 99.4922C36.8359 99.2109 36.9375 99.0078 36.9844 98.8828C37.0625 98.6641 37.1797 98.4531 37.3359 98.25C37.5078 98.0312 37.7188 97.9219 37.9688 97.9219C38.1875 97.9219 38.3672 97.9766 38.5078 98.0859C38.6641 98.1797 38.7422 98.3516 38.7422 98.6016C38.7422 98.7734 38.6797 99.0234 38.5547 99.3516C38.4297 99.6641 38.2734 99.9922 38.0859 100.336C37.8984 100.68 37.6953 100.969 37.4766 101.203C37.2578 101.438 37.0547 101.555 36.8672 101.555ZM33.4922 100.945C32.9609 100.945 32.6953 100.695 32.6953 100.195C32.6953 100.086 32.7578 99.9141 32.8828 99.6797C33.0078 99.4297 33.1641 99.1719 33.3516 98.9062C33.5391 98.6406 33.7266 98.4141 33.9141 98.2266C34.1016 98.0391 34.2656 97.9453 34.4062 97.9453C34.6406 97.9453 34.8281 98 34.9688 98.1094C35.125 98.2031 35.2031 98.3828 35.2031 98.6484C35.2031 98.7891 35.1406 98.9922 35.0156 99.2578C34.9062 99.5078 34.7578 99.7656 34.5703 100.031C34.3984 100.281 34.2109 100.5 34.0078 100.688C33.8203 100.859 33.6484 100.945 33.4922 100.945ZM26.5781 109.523C25.9375 109.523 25.6172 109.188 25.6172 108.516V106.406C25.6172 105.078 26.2812 104.414 27.6094 104.414H44.4375C45.1406 104.414 45.6875 104.555 46.0781 104.836C46.4844 105.102 46.6875 105.625 46.6875 106.406V108.516C46.6875 109.188 46.3672 109.523 45.7266 109.523C45.3047 109.523 45.0312 109.406 44.9062 109.172C44.7812 108.938 44.7188 108.648 44.7188 108.305C44.7344 107.945 44.75 107.594 44.7656 107.25C44.7812 106.891 44.7344 106.594 44.625 106.359C44.5156 106.125 44.2578 106.008 43.8516 106.008H28.4766C28.0703 106.008 27.8047 106.125 27.6797 106.359C27.5547 106.594 27.5 106.891 27.5156 107.25C27.5312 107.594 27.5469 107.945 27.5625 108.305C27.5781 108.648 27.5234 108.938 27.3984 109.172C27.2734 109.406 27 109.523 26.5781 109.523ZM28.9688 118.266C27.7656 118.266 27.1641 117.68 27.1641 116.508V115.219C27.1641 114.016 27.75 113.414 28.9219 113.414H34.0078L34.2656 111.961H30.6562C30.0156 111.961 29.5312 111.828 29.2031 111.562C28.8906 111.297 28.7344 110.828 28.7344 110.156C28.7344 109.672 28.75 109.219 28.7812 108.797C28.8125 108.359 28.9453 108.008 29.1797 107.742C29.4141 107.461 29.8438 107.32 30.4688 107.32H41.8125C42.4062 107.32 42.8438 107.477 43.125 107.789C43.4062 108.102 43.5469 108.547 43.5469 109.125C43.5469 109.594 43.5312 110.047 43.5 110.484C43.4844 110.922 43.3594 111.281 43.125 111.562C42.8906 111.828 42.4531 111.961 41.8125 111.961H36.2812L35.7891 113.414H43.2188C43.8594 113.414 44.3438 113.547 44.6719 113.812C45 114.078 45.1641 114.547 45.1641 115.219V116.461C45.1641 116.977 45.0312 117.406 44.7656 117.75C44.5156 118.094 44.1094 118.266 43.5469 118.266H28.9688ZM31.3125 110.555H40.9453C41.1484 110.555 41.3125 110.5 41.4375 110.391C41.5625 110.266 41.625 110.102 41.625 109.898V109.383C41.625 109.18 41.5625 109.023 41.4375 108.914C41.3125 108.789 41.1484 108.727 40.9453 108.727H31.3125C31.1094 108.727 30.9453 108.789 30.8203 108.914C30.6953 109.023 30.6328 109.18 30.6328 109.383V109.898C30.6328 110.102 30.6953 110.266 30.8203 110.391C30.9453 110.5 31.1094 110.555 31.3125 110.555ZM29.8125 116.812H42.4922C42.9453 116.812 43.1719 116.586 43.1719 116.133V115.5C43.1719 115.047 42.9453 114.82 42.4922 114.82H29.8125C29.375 114.82 29.1562 115.047 29.1562 115.5V116.133C29.1562 116.586 29.375 116.812 29.8125 116.812ZM56.5312 118.734C56.1094 118.734 55.7656 118.641 55.5 118.453C55.2344 118.281 55.1016 117.969 55.1016 117.516C55.1016 117.031 55.2188 116.711 55.4531 116.555C55.7031 116.383 56.0078 116.297 56.3672 116.297C56.7422 116.297 57.1094 116.297 57.4688 116.297C57.8594 116.297 58.1953 116.234 58.4766 116.109C58.7578 115.984 58.8984 115.68 58.8984 115.195V98.2266C58.8984 97.8359 58.9844 97.5234 59.1562 97.2891C59.3281 97.0391 59.625 96.9141 60.0469 96.9141C60.4688 96.9141 60.7656 97.0391 60.9375 97.2891C61.125 97.5234 61.2188 97.8359 61.2188 98.2266V115.781C61.2188 117.75 60.2422 118.734 58.2891 118.734H56.5312ZM69.5859 114.609C69.2266 114.609 68.9609 114.484 68.7891 114.234C68.6172 113.984 68.4922 113.711 68.4141 113.414C67.8984 111.633 67.3594 109.898 66.7969 108.211C66.25 106.508 65.5938 104.812 64.8281 103.125C64.7656 102.969 64.6875 102.789 64.5938 102.586C64.5 102.367 64.4531 102.172 64.4531 102C64.4531 101.656 64.5469 101.414 64.7344 101.273C64.9375 101.117 65.2031 101.039 65.5312 101.039C65.8438 101.039 66.1016 101.156 66.3047 101.391C66.5078 101.609 66.6719 101.844 66.7969 102.094C66.9531 102.375 67.1641 102.812 67.4297 103.406C67.6953 104 67.9844 104.68 68.2969 105.445C68.6094 106.211 68.9141 107.008 69.2109 107.836C69.5234 108.648 69.8125 109.43 70.0781 110.18C70.3438 110.93 70.5547 111.586 70.7109 112.148C70.8672 112.695 70.9453 113.094 70.9453 113.344C70.9453 113.688 70.8047 113.984 70.5234 114.234C70.2422 114.484 69.9297 114.609 69.5859 114.609ZM50.2266 114.656C49.4297 114.656 49.0312 114.273 49.0312 113.508C49.0312 113.352 49.0781 113.156 49.1719 112.922C49.2656 112.688 49.3672 112.453 49.4766 112.219C49.5859 111.984 49.6719 111.805 49.7344 111.68C50.3438 110.43 50.8594 109.133 51.2812 107.789C51.7031 106.445 52.0547 105.094 52.3359 103.734C52.3672 103.625 52.4141 103.414 52.4766 103.102C52.5391 102.773 52.6094 102.453 52.6875 102.141C52.7812 101.812 52.8594 101.609 52.9219 101.531C53.1406 101.234 53.4375 101.086 53.8125 101.086C54.5312 101.086 54.8906 101.461 54.8906 102.211C54.8906 102.711 54.8125 103.359 54.6562 104.156C54.5 104.953 54.2891 105.828 54.0234 106.781C53.7578 107.719 53.4688 108.648 53.1562 109.57C52.8438 110.492 52.5312 111.328 52.2188 112.078C51.9062 112.828 51.6172 113.414 51.3516 113.836C51.2266 114.039 51.0781 114.227 50.9062 114.398C50.7344 114.57 50.5078 114.656 50.2266 114.656ZM75.5859 118.688C75.2266 118.688 74.9375 118.602 74.7188 118.43C74.5156 118.258 74.4141 117.984 74.4141 117.609C74.4141 117.219 74.5312 116.961 74.7656 116.836C75.0156 116.695 75.3047 116.609 75.6328 116.578C75.9766 116.531 76.3047 116.469 76.6172 116.391C76.9453 116.297 77.1875 116.102 77.3438 115.805C77.5 115.539 77.6172 115.164 77.6953 114.68C77.7891 114.18 77.8516 113.648 77.8828 113.086C77.9297 112.508 77.9531 111.969 77.9531 111.469C77.9688 110.953 77.9766 110.539 77.9766 110.227C77.9766 109.867 77.9688 109.492 77.9531 109.102C77.9531 108.711 77.9141 108.344 77.8359 108C77.7266 108.188 77.5469 108.469 77.2969 108.844C77.0625 109.219 76.7891 109.633 76.4766 110.086C76.1641 110.523 75.8438 110.945 75.5156 111.352C75.1875 111.758 74.875 112.094 74.5781 112.359C74.2969 112.625 74.0547 112.758 73.8516 112.758C73.5391 112.758 73.3125 112.672 73.1719 112.5C73.0312 112.312 72.9609 112.07 72.9609 111.773C72.9609 111.633 73.0234 111.461 73.1484 111.258C73.2891 111.055 73.4453 110.867 73.6172 110.695C73.7891 110.508 73.9141 110.367 73.9922 110.273C74.6641 109.539 75.3047 108.789 75.9141 108.023C76.5391 107.258 77.0938 106.445 77.5781 105.586C77.4844 105.117 77.3672 104.656 77.2266 104.203C77.1016 103.75 76.9531 103.305 76.7812 102.867C76.6562 103.008 76.4688 103.203 76.2188 103.453C75.9688 103.703 75.6953 103.961 75.3984 104.227C75.1016 104.492 74.8125 104.719 74.5312 104.906C74.25 105.094 74.0078 105.188 73.8047 105.188C73.5078 105.188 73.2891 105.102 73.1484 104.93C73.0234 104.742 72.9609 104.508 72.9609 104.227C72.9609 104.055 73.0781 103.836 73.3125 103.57C73.5625 103.305 73.8516 103.016 74.1797 102.703C74.5234 102.391 74.8516 102.102 75.1641 101.836C75.4766 101.555 75.7109 101.336 75.8672 101.18C75.6016 100.773 75.3047 100.391 74.9766 100.031C74.6641 99.6719 74.3281 99.3203 73.9688 98.9766C73.8594 98.8672 73.75 98.7422 73.6406 98.6016C73.5312 98.4609 73.4766 98.3125 73.4766 98.1562C73.4766 97.5625 73.7578 97.2656 74.3203 97.2656C74.5547 97.2656 74.8047 97.3672 75.0703 97.5703C75.3359 97.7578 75.6016 97.9922 75.8672 98.2734C76.1328 98.5391 76.375 98.8125 76.5938 99.0938C76.8125 99.3594 76.9844 99.5781 77.1094 99.75C77.2031 99.625 77.3438 99.4297 77.5312 99.1641C77.7188 98.8828 77.9219 98.5859 78.1406 98.2734C78.375 97.9609 78.6094 97.6953 78.8438 97.4766C79.0781 97.2578 79.2891 97.1484 79.4766 97.1484C80.1016 97.1484 80.4141 97.4375 80.4141 98.0156C80.4141 98.2188 80.3203 98.4844 80.1328 98.8125C79.9453 99.125 79.7188 99.4531 79.4531 99.7969C79.1875 100.141 78.9297 100.461 78.6797 100.758C78.4297 101.055 78.2422 101.273 78.1172 101.414C78.7578 102.789 79.1953 104.242 79.4297 105.773C79.6641 107.289 79.7812 108.797 79.7812 110.297C79.7812 110.703 79.7734 111.211 79.7578 111.82C79.7422 112.43 79.7031 113.07 79.6406 113.742C79.5938 114.414 79.5156 115.047 79.4062 115.641C79.2969 116.234 79.1406 116.711 78.9375 117.07C78.5938 117.695 78.1172 118.117 77.5078 118.336C76.9141 118.57 76.2734 118.688 75.5859 118.688ZM80.6016 118.148C80.3047 118.148 80.0469 118.086 79.8281 117.961C79.6094 117.836 79.5 117.602 79.5 117.258C79.5 116.914 79.6094 116.68 79.8281 116.555C80.0469 116.414 80.3047 116.344 80.6016 116.344H86.6016V113.109H81.8672C81.5703 113.109 81.3125 113.047 81.0938 112.922C80.8906 112.797 80.7891 112.562 80.7891 112.219C80.7891 111.875 80.8906 111.641 81.0938 111.516C81.3125 111.391 81.5703 111.328 81.8672 111.328H86.6016V108.75H83.4844C82.7812 108.75 82.2266 108.625 81.8203 108.375C81.4297 108.125 81.2344 107.602 81.2344 106.805V99.7969C81.2344 98.4844 81.8828 97.8281 83.1797 97.8281H91.9219C93.2344 97.8281 93.8906 98.4844 93.8906 99.7969V106.805C93.8906 108.117 93.2344 108.773 91.9219 108.773L88.3828 108.75V111.328H93.1406C93.4531 111.328 93.7031 111.398 93.8906 111.539C94.0938 111.664 94.1953 111.891 94.1953 112.219C94.1953 112.547 94.0938 112.781 93.8906 112.922C93.7031 113.047 93.4531 113.109 93.1406 113.109H88.3828V116.344H93.9375C94.25 116.344 94.5078 116.414 94.7109 116.555C94.9297 116.68 95.0391 116.914 95.0391 117.258C95.0391 117.602 94.9297 117.836 94.7109 117.961C94.5078 118.086 94.25 118.148 93.9375 118.148H80.6016ZM83.0625 102.375H86.6016V99.5391H83.8828C83.6328 99.5391 83.4297 99.6172 83.2734 99.7734C83.1328 99.9141 83.0625 100.109 83.0625 100.359V102.375ZM88.3828 102.375H91.9922V100.359C91.9922 100.109 91.9141 99.9141 91.7578 99.7734C91.6172 99.6172 91.4219 99.5391 91.1719 99.5391H88.3828V102.375ZM83.8828 107.062H86.6016V103.969H83.0625V106.242C83.0625 106.492 83.1328 106.695 83.2734 106.852C83.4297 106.992 83.6328 107.062 83.8828 107.062ZM88.3828 107.062H91.1719C91.4219 107.062 91.6172 106.992 91.7578 106.852C91.9141 106.695 91.9922 106.492 91.9922 106.242V103.969H88.3828V107.062ZM98.8125 99.6328C98.5156 99.6328 98.2812 99.5625 98.1094 99.4219C97.9375 99.2812 97.8516 99.0625 97.8516 98.7656C97.8516 98.4531 97.9375 98.2344 98.1094 98.1094C98.2812 97.9688 98.5156 97.8984 98.8125 97.8984H104.508C104.805 97.8984 105.039 97.9688 105.211 98.1094C105.398 98.2344 105.492 98.4531 105.492 98.7656C105.492 99.0781 105.398 99.3047 105.211 99.4453C105.039 99.5703 104.805 99.6328 104.508 99.6328H98.8125ZM113.32 118.148C112.648 118.148 111.961 118.148 111.258 118.148C110.57 118.148 109.898 118.094 109.242 117.984C108.117 117.797 107.555 117.148 107.555 116.039V107.578C107.555 106.203 108.227 105.516 109.57 105.516H114.539C115.164 105.516 115.477 105.203 115.477 104.578V101.086C115.477 100.461 115.164 100.148 114.539 100.148H107.953C107.609 100.148 107.32 100.078 107.086 99.9375C106.852 99.7969 106.734 99.5391 106.734 99.1641C106.734 98.7891 106.852 98.5312 107.086 98.3906C107.32 98.25 107.609 98.1797 107.953 98.1797H115.477C116.117 98.1797 116.609 98.3359 116.953 98.6484C117.312 98.9453 117.492 99.4219 117.492 100.078V105.188C117.492 105.906 117.359 106.469 117.094 106.875C116.828 107.281 116.297 107.484 115.5 107.484H110.414C109.852 107.484 109.57 107.766 109.57 108.328V115.102C109.57 115.445 109.688 115.695 109.922 115.852C110.156 116.008 110.438 116.094 110.766 116.109C111.281 116.125 111.797 116.141 112.312 116.156C112.844 116.156 113.367 116.156 113.883 116.156C114.07 116.156 114.336 116.148 114.68 116.133C115.039 116.117 115.391 116.078 115.734 116.016C116.078 115.938 116.312 115.828 116.438 115.688C116.609 115.484 116.711 115.227 116.742 114.914C116.773 114.602 116.805 114.289 116.836 113.977C116.883 113.648 116.977 113.375 117.117 113.156C117.273 112.938 117.547 112.828 117.938 112.828C118.344 112.828 118.633 112.953 118.805 113.203C118.977 113.453 119.062 113.766 119.062 114.141C119.062 114.688 119 115.266 118.875 115.875C118.75 116.484 118.477 116.992 118.055 117.398C117.852 117.586 117.539 117.727 117.117 117.82C116.711 117.93 116.258 118.008 115.758 118.055C115.273 118.102 114.812 118.125 114.375 118.125C113.938 118.141 113.586 118.148 113.32 118.148ZM97.9219 102.867C97.625 102.867 97.3906 102.797 97.2188 102.656C97.0469 102.516 96.9609 102.297 96.9609 102C96.9609 101.688 97.0469 101.469 97.2188 101.344C97.3906 101.203 97.625 101.133 97.9219 101.133H105.398C105.695 101.133 105.93 101.203 106.102 101.344C106.273 101.469 106.359 101.688 106.359 102C106.359 102.297 106.273 102.516 106.102 102.656C105.93 102.797 105.695 102.867 105.398 102.867H97.9219ZM98.8594 106.055C98.5781 106.055 98.3516 105.992 98.1797 105.867C98.0078 105.727 97.9219 105.508 97.9219 105.211C97.9219 104.898 98.0078 104.68 98.1797 104.555C98.3516 104.43 98.5781 104.367 98.8594 104.367H104.484C104.766 104.367 104.992 104.43 105.164 104.555C105.336 104.68 105.422 104.898 105.422 105.211C105.422 105.508 105.336 105.727 105.164 105.867C104.992 105.992 104.766 106.055 104.484 106.055H98.8594ZM98.8594 109.266C98.5781 109.266 98.3516 109.203 98.1797 109.078C98.0078 108.938 97.9219 108.719 97.9219 108.422C97.9219 108.109 98.0078 107.891 98.1797 107.766C98.3516 107.641 98.5781 107.578 98.8594 107.578H104.484C104.766 107.578 104.992 107.641 105.164 107.766C105.336 107.891 105.422 108.109 105.422 108.422C105.422 108.719 105.336 108.938 105.164 109.078C104.992 109.203 104.766 109.266 104.484 109.266H98.8594ZM99.8672 117.914C98.6016 117.914 97.9688 117.281 97.9688 116.016V112.664C97.9688 111.398 98.6016 110.766 99.8672 110.766H103.477C104.742 110.766 105.375 111.398 105.375 112.664V116.016C105.375 117.281 104.742 117.914 103.477 117.914H99.8672ZM100.406 116.273H102.938C103.391 116.273 103.617 116.047 103.617 115.594V113.086C103.617 112.633 103.391 112.406 102.938 112.406H100.406C99.9531 112.406 99.7266 112.633 99.7266 113.086V115.594C99.7266 116.047 99.9531 116.273 100.406 116.273ZM121.898 104.859C121.555 104.859 121.312 104.758 121.172 104.555C121.031 104.352 120.961 104.094 120.961 103.781C120.961 103.562 121.047 103.375 121.219 103.219C121.406 103.047 121.617 102.906 121.852 102.797C122.102 102.672 122.305 102.578 122.461 102.516C124.039 101.875 125.469 101.164 126.75 100.383C128.047 99.5859 129.305 98.5938 130.523 97.4062C130.695 97.2344 130.875 97.1016 131.062 97.0078C131.266 96.8984 131.484 96.8438 131.719 96.8438C132 96.8438 132.266 96.8984 132.516 97.0078C132.766 97.1172 132.891 97.3438 132.891 97.6875C132.891 97.8281 132.836 97.9688 132.727 98.1094C134.023 99.1562 135.367 100.039 136.758 100.758C138.164 101.461 139.68 101.992 141.305 102.352C141.508 102.398 141.742 102.469 142.008 102.562C142.273 102.641 142.508 102.758 142.711 102.914C142.93 103.07 143.039 103.281 143.039 103.547C143.039 104.312 142.664 104.695 141.914 104.695C141.648 104.695 141.266 104.625 140.766 104.484C140.281 104.344 139.758 104.172 139.195 103.969C138.648 103.766 138.133 103.562 137.648 103.359C137.164 103.141 136.789 102.969 136.523 102.844C136.602 102.938 136.664 103.039 136.711 103.148C136.758 103.258 136.781 103.375 136.781 103.5C136.781 103.828 136.688 104.055 136.5 104.18C136.312 104.305 136.07 104.367 135.773 104.367H127.266C126.969 104.367 126.719 104.305 126.516 104.18C126.328 104.055 126.234 103.828 126.234 103.5C126.234 103.375 126.258 103.25 126.305 103.125C126.352 102.984 126.43 102.875 126.539 102.797C126.305 102.938 125.977 103.125 125.555 103.359C125.148 103.578 124.711 103.805 124.242 104.039C123.773 104.273 123.328 104.469 122.906 104.625C122.484 104.781 122.148 104.859 121.898 104.859ZM126.68 102.703C126.852 102.641 127.047 102.609 127.266 102.609H135.867L136.031 102.633H136.125C135.297 102.18 134.5 101.664 133.734 101.086C132.969 100.508 132.227 99.9219 131.508 99.3281C130.023 100.578 128.414 101.703 126.68 102.703ZM136.289 111.938C135.992 111.938 135.742 111.875 135.539 111.75C135.336 111.625 135.234 111.398 135.234 111.07C135.234 110.961 135.305 110.789 135.445 110.555C135.602 110.305 135.773 110.031 135.961 109.734C136.164 109.438 136.336 109.156 136.477 108.891C136.633 108.609 136.711 108.391 136.711 108.234C136.711 108.125 136.672 108.062 136.594 108.047C136.516 108.016 136.438 108 136.359 108H124.359C124.047 108 123.789 107.93 123.586 107.789C123.383 107.648 123.281 107.406 123.281 107.062C123.281 106.703 123.383 106.461 123.586 106.336C123.789 106.195 124.047 106.125 124.359 106.125H137.344C137.625 106.125 137.914 106.156 138.211 106.219C138.508 106.266 138.75 106.375 138.938 106.547C139.141 106.719 139.242 106.984 139.242 107.344C139.242 107.5 139.164 107.758 139.008 108.117C138.867 108.477 138.68 108.875 138.445 109.312C138.211 109.734 137.961 110.148 137.695 110.555C137.43 110.961 137.172 111.297 136.922 111.562C136.672 111.812 136.461 111.938 136.289 111.938ZM133.031 114C132.828 114 132.602 113.883 132.352 113.648C132.102 113.398 131.859 113.109 131.625 112.781C131.391 112.438 131.195 112.117 131.039 111.82C130.898 111.523 130.828 111.32 130.828 111.211C130.828 110.602 131.148 110.297 131.789 110.297C131.977 110.297 132.195 110.398 132.445 110.602C132.711 110.805 132.961 111.055 133.195 111.352C133.445 111.648 133.648 111.945 133.805 112.242C133.977 112.523 134.062 112.758 134.062 112.945C134.062 113.648 133.719 114 133.031 114ZM132.047 118.266C131.453 118.266 130.844 118.25 130.219 118.219C129.609 118.203 129.008 118.156 128.414 118.078C127.945 118 127.562 117.844 127.266 117.609C126.984 117.375 126.844 117.008 126.844 116.508V111.891C126.844 111.547 126.914 111.266 127.055 111.047C127.211 110.828 127.477 110.719 127.852 110.719C128.211 110.719 128.461 110.836 128.602 111.07C128.758 111.289 128.836 111.562 128.836 111.891V115.664C128.836 115.867 128.93 116.016 129.117 116.109C129.32 116.203 129.539 116.266 129.773 116.297C130.023 116.312 130.219 116.32 130.359 116.32C130.641 116.336 130.922 116.352 131.203 116.367C131.5 116.367 131.789 116.367 132.07 116.367C132.242 116.367 132.531 116.367 132.938 116.367C133.359 116.352 133.773 116.328 134.18 116.297C134.586 116.266 134.859 116.219 135 116.156C135.219 116.062 135.359 115.875 135.422 115.594C135.484 115.312 135.539 115.016 135.586 114.703C135.633 114.391 135.727 114.125 135.867 113.906C136.008 113.672 136.266 113.555 136.641 113.555C137.344 113.555 137.695 113.898 137.695 114.586C137.695 115.039 137.648 115.555 137.555 116.133C137.477 116.711 137.258 117.172 136.898 117.516C136.711 117.703 136.398 117.844 135.961 117.938C135.539 118.047 135.07 118.125 134.555 118.172C134.055 118.219 133.57 118.242 133.102 118.242C132.648 118.258 132.297 118.266 132.047 118.266ZM141.633 117.352C141.352 117.352 141.117 117.258 140.93 117.07C140.742 116.883 140.586 116.68 140.461 116.461C140.164 115.883 139.859 115.32 139.547 114.773C139.25 114.227 138.922 113.688 138.562 113.156C138.5 113.047 138.43 112.93 138.352 112.805C138.273 112.664 138.234 112.531 138.234 112.406C138.234 111.781 138.562 111.469 139.219 111.469C139.438 111.469 139.641 111.547 139.828 111.703C140.016 111.844 140.164 112 140.273 112.172C140.383 112.328 140.57 112.594 140.836 112.969C141.102 113.328 141.383 113.727 141.68 114.164C141.977 114.602 142.227 115.016 142.43 115.406C142.648 115.781 142.758 116.062 142.758 116.25C142.758 116.984 142.383 117.352 141.633 117.352ZM122.344 117.773C121.625 117.773 121.266 117.422 121.266 116.719C121.266 116.547 121.305 116.383 121.383 116.227C121.477 116.07 121.555 115.922 121.617 115.781C121.914 115.25 122.156 114.703 122.344 114.141C122.547 113.578 122.734 113.008 122.906 112.43C122.984 112.164 123.102 111.945 123.258 111.773C123.414 111.602 123.641 111.516 123.938 111.516C124.625 111.516 124.969 111.859 124.969 112.547C124.969 112.969 124.883 113.445 124.711 113.977C124.555 114.508 124.359 115.031 124.125 115.547C123.906 116.047 123.695 116.484 123.492 116.859C123.383 117.078 123.234 117.281 123.047 117.469C122.859 117.672 122.625 117.773 122.344 117.773ZM165.984 109.852C165.641 109.852 165.281 109.75 164.906 109.547C164.547 109.328 164.188 109.062 163.828 108.75C163.484 108.422 163.164 108.094 162.867 107.766C162.57 107.438 162.328 107.156 162.141 106.922C161.391 106.016 160.75 105.062 160.219 104.062C159.703 103.062 159.312 101.992 159.047 100.852C159 100.617 158.914 100.375 158.789 100.125C158.68 99.8594 158.469 99.7266 158.156 99.7266H155.672C155.328 99.7266 155.039 99.6484 154.805 99.4922C154.586 99.3359 154.477 99.0625 154.477 98.6719C154.477 98.2969 154.586 98.0312 154.805 97.875C155.039 97.7188 155.328 97.6406 155.672 97.6406H158.719C159.359 97.6406 159.844 97.8047 160.172 98.1328C160.5 98.4609 160.727 98.9219 160.852 99.5156C161.211 101.219 161.758 102.688 162.492 103.922C163.242 105.141 164.352 106.234 165.82 107.203C166.055 107.359 166.312 107.562 166.594 107.812C166.891 108.062 167.039 108.352 167.039 108.68C167.039 109.023 166.953 109.305 166.781 109.523C166.625 109.742 166.359 109.852 165.984 109.852ZM146.016 110.016C145.625 110.016 145.352 109.906 145.195 109.688C145.039 109.453 144.961 109.164 144.961 108.82C144.961 108.648 145.07 108.422 145.289 108.141C145.508 107.844 145.742 107.562 145.992 107.297C146.242 107.016 146.414 106.82 146.508 106.711C147.305 105.836 147.977 104.898 148.523 103.898C149.086 102.883 149.586 101.828 150.023 100.734C150.148 100.453 150.305 100.141 150.492 99.7969C150.695 99.4531 150.984 99.2812 151.359 99.2812C151.672 99.2812 151.922 99.3516 152.109 99.4922C152.312 99.6328 152.414 99.875 152.414 100.219C152.414 100.5 152.297 100.938 152.062 101.531C151.828 102.125 151.516 102.789 151.125 103.523C150.734 104.258 150.305 105.008 149.836 105.773C149.367 106.523 148.891 107.219 148.406 107.859C147.922 108.5 147.469 109.023 147.047 109.43C146.641 109.82 146.297 110.016 146.016 110.016ZM164.555 118.688C164.258 118.688 163.977 118.547 163.711 118.266C163.461 118 163.242 117.688 163.055 117.328C162.867 116.984 162.711 116.703 162.586 116.484C160.055 116.828 157.531 117.109 155.016 117.328C152.5 117.562 149.969 117.789 147.422 118.008C147.031 118.039 146.719 117.945 146.484 117.727C146.266 117.508 146.156 117.211 146.156 116.836C146.156 116.461 146.273 116.195 146.508 116.039C146.758 115.867 147.055 115.758 147.398 115.711C147.758 115.664 148.117 115.648 148.477 115.664C148.836 115.68 149.141 115.68 149.391 115.664C150.172 114.211 150.828 112.766 151.359 111.328C151.906 109.891 152.453 108.406 153 106.875C153.109 106.594 153.258 106.367 153.445 106.195C153.633 106.008 153.883 105.914 154.195 105.914C154.461 105.914 154.719 106.016 154.969 106.219C155.219 106.422 155.344 106.664 155.344 106.945C155.344 107.055 155.32 107.156 155.273 107.25C155.242 107.344 155.211 107.438 155.18 107.531C154.68 108.922 154.156 110.297 153.609 111.656C153.078 113 152.422 114.305 151.641 115.57L161.508 114.844C161.164 114.344 160.805 113.852 160.43 113.367C160.07 112.883 159.688 112.422 159.281 111.984C159.141 111.828 158.961 111.617 158.742 111.352C158.523 111.07 158.414 110.82 158.414 110.602C158.414 110.289 158.508 110.062 158.695 109.922C158.883 109.781 159.125 109.711 159.422 109.711C159.609 109.711 159.891 109.875 160.266 110.203C160.641 110.516 161.062 110.938 161.531 111.469C162.016 111.984 162.5 112.555 162.984 113.18C163.484 113.789 163.945 114.398 164.367 115.008C164.789 115.602 165.125 116.133 165.375 116.602C165.641 117.055 165.773 117.391 165.773 117.609C165.773 118 165.656 118.273 165.422 118.43C165.203 118.602 164.914 118.688 164.555 118.688ZM172.336 118.008C170.805 118.008 170.039 117.242 170.039 115.711V100.383C170.039 99.5547 170.195 98.9141 170.508 98.4609C170.82 97.9922 171.43 97.7578 172.336 97.7578H187.969C189.5 97.7578 190.266 98.5234 190.266 100.055V115.711C190.266 117.242 189.5 118.008 187.969 118.008H172.336ZM173.273 116.156H187.031C187.859 116.156 188.273 115.75 188.273 114.938V100.828C188.273 100.016 187.859 99.6094 187.031 99.6094H173.273C172.445 99.6094 172.031 100.016 172.031 100.828V114.938C172.031 115.75 172.445 116.156 173.273 116.156ZM173.508 105.492C173.023 105.492 172.781 105.266 172.781 104.812C172.781 104.375 173.023 104.156 173.508 104.156H179.039V102.867H174.656C174.438 102.867 174.258 102.82 174.117 102.727C173.977 102.617 173.906 102.445 173.906 102.211C173.906 101.977 173.977 101.812 174.117 101.719C174.258 101.609 174.438 101.555 174.656 101.555H179.039C179.039 101.289 179.039 101.039 179.039 100.805C179.039 100.57 179.102 100.383 179.227 100.242C179.352 100.102 179.586 100.031 179.93 100.031C180.289 100.031 180.531 100.102 180.656 100.242C180.781 100.383 180.844 100.57 180.844 100.805C180.844 101.023 180.844 101.273 180.844 101.555H185.555C186.039 101.555 186.281 101.773 186.281 102.211C186.281 102.648 186.039 102.867 185.555 102.867H180.844V104.156H186.68C186.898 104.156 187.078 104.203 187.219 104.297C187.375 104.391 187.453 104.562 187.453 104.812C187.453 105.062 187.375 105.242 187.219 105.352C187.078 105.445 186.898 105.492 186.68 105.492H173.508ZM179.883 115.711C179.305 115.711 179.016 115.414 179.016 114.82V111.984C178.781 112.172 178.422 112.438 177.938 112.781C177.469 113.125 176.953 113.477 176.391 113.836C175.844 114.195 175.32 114.5 174.82 114.75C174.336 115 173.953 115.125 173.672 115.125C173.156 115.125 172.898 114.859 172.898 114.328C172.898 114.094 173.047 113.898 173.344 113.742C173.656 113.57 173.898 113.453 174.07 113.391C174.508 113.219 175.016 113 175.594 112.734C176.188 112.453 176.758 112.148 177.305 111.82C177.852 111.492 178.281 111.156 178.594 110.812H175.711C174.633 110.812 174.094 110.281 174.094 109.219V108.164C174.094 107.617 174.234 107.219 174.516 106.969C174.812 106.703 175.227 106.57 175.758 106.57H184.125C184.688 106.57 185.109 106.703 185.391 106.969C185.672 107.219 185.812 107.633 185.812 108.211V109.219C185.812 110.281 185.266 110.812 184.172 110.812H180.75V112.312C180.953 112.078 181.18 111.961 181.43 111.961C181.539 111.961 181.711 112.008 181.945 112.102C182.195 112.18 182.445 112.273 182.695 112.383C182.945 112.492 183.125 112.57 183.234 112.617C183.344 112.539 183.523 112.391 183.773 112.172C184.039 111.953 184.32 111.727 184.617 111.492C184.93 111.242 185.219 111.031 185.484 110.859C185.766 110.672 185.969 110.578 186.094 110.578C186.594 110.578 186.844 110.812 186.844 111.281C186.844 111.406 186.734 111.562 186.516 111.75C186.312 111.938 186.062 112.125 185.766 112.312C185.469 112.5 185.188 112.672 184.922 112.828C184.672 112.969 184.5 113.062 184.406 113.109C184.5 113.125 184.672 113.195 184.922 113.32C185.188 113.43 185.461 113.57 185.742 113.742C186.039 113.898 186.289 114.062 186.492 114.234C186.711 114.391 186.82 114.531 186.82 114.656C186.82 115.172 186.57 115.43 186.07 115.43C185.945 115.43 185.82 115.406 185.695 115.359C185.586 115.312 185.469 115.258 185.344 115.195C184.688 114.852 184.039 114.516 183.398 114.188C182.758 113.844 182.094 113.531 181.406 113.25C181.312 113.219 181.195 113.172 181.055 113.109C180.914 113.047 180.812 112.969 180.75 112.875V114.82C180.75 115.414 180.461 115.711 179.883 115.711ZM176.391 109.57H183.516C183.938 109.57 184.148 109.359 184.148 108.938V108.445C184.148 108.258 184.086 108.109 183.961 108C183.852 107.875 183.703 107.812 183.516 107.812H176.391C175.969 107.812 175.758 108.023 175.758 108.445V108.938C175.758 109.359 175.969 109.57 176.391 109.57Z" fill="white"/>
<path d="M20.0391 147.07C19.6328 147.07 19.3438 146.945 19.1719 146.695C19.0156 146.43 18.9375 146.109 18.9375 145.734V130.031C18.9375 129.656 19.0156 129.344 19.1719 129.094C19.3438 128.828 19.6328 128.695 20.0391 128.695C20.4453 128.695 20.7266 128.828 20.8828 129.094C21.0547 129.344 21.1406 129.656 21.1406 130.031V137.672L26.8359 129.305C26.9453 129.133 27.0781 128.992 27.2344 128.883C27.4062 128.758 27.5938 128.695 27.7969 128.695C28.4844 128.695 28.8281 129.023 28.8281 129.68C28.8281 129.805 28.7891 129.938 28.7109 130.078C28.6484 130.203 28.5781 130.312 28.5 130.406L24.5391 136.008L29.1562 145.289C29.2188 145.398 29.2656 145.523 29.2969 145.664C29.3438 145.789 29.3672 145.914 29.3672 146.039C29.3672 146.383 29.2656 146.641 29.0625 146.812C28.875 146.984 28.6094 147.07 28.2656 147.07C27.9844 147.07 27.7578 146.984 27.5859 146.812C27.4141 146.641 27.2656 146.438 27.1406 146.203L23.1562 137.953L21.1406 140.789V145.734C21.1406 146.109 21.0547 146.43 20.8828 146.695C20.7266 146.945 20.4453 147.07 20.0391 147.07ZM36 147.07C34.6719 147.07 33.6328 146.781 32.8828 146.203C32.1484 145.609 31.625 144.828 31.3125 143.859C31.0156 142.891 30.8672 141.82 30.8672 140.648C30.8672 139.445 31.0234 138.359 31.3359 137.391C31.6484 136.422 32.1875 135.648 32.9531 135.07C33.7188 134.492 34.7656 134.203 36.0938 134.203C37.0312 134.203 37.8203 134.383 38.4609 134.742C39.1016 135.102 39.6172 135.594 40.0078 136.219C40.4141 136.828 40.7031 137.516 40.875 138.281C41.0469 139.047 41.1328 139.844 41.1328 140.672C41.1328 141.844 40.9766 142.914 40.6641 143.883C40.3672 144.852 39.8438 145.625 39.0938 146.203C38.3594 146.781 37.3281 147.07 36 147.07ZM36 145.148C36.625 145.148 37.125 145.016 37.5 144.75C37.8906 144.469 38.1875 144.109 38.3906 143.672C38.5938 143.234 38.7344 142.758 38.8125 142.242C38.8906 141.711 38.9297 141.195 38.9297 140.695C38.9297 140.195 38.8906 139.68 38.8125 139.148C38.75 138.602 38.6094 138.102 38.3906 137.648C38.1875 137.195 37.8906 136.828 37.5 136.547C37.125 136.266 36.6172 136.125 35.9766 136.125C35.3359 136.125 34.8203 136.281 34.4297 136.594C34.0391 136.906 33.7422 137.312 33.5391 137.812C33.3516 138.312 33.2188 138.844 33.1406 139.406C33.0781 139.969 33.0469 140.5 33.0469 141C33.0469 141.672 33.125 142.328 33.2812 142.969C33.4375 143.594 33.7266 144.117 34.1484 144.539C34.5703 144.945 35.1875 145.148 36 145.148ZM49.4531 146.742C48.6406 146.742 48.0234 146.641 47.6016 146.438C47.1953 146.234 46.9219 145.906 46.7812 145.453C46.6406 145 46.5703 144.391 46.5703 143.625V136.43H44.8594C44.5469 136.43 44.2734 136.367 44.0391 136.242C43.8047 136.102 43.6875 135.852 43.6875 135.492C43.6875 135.133 43.8047 134.891 44.0391 134.766C44.2734 134.625 44.5469 134.555 44.8594 134.555H46.5703V131.391C46.5703 131.016 46.6484 130.711 46.8047 130.477C46.9609 130.227 47.2422 130.102 47.6484 130.102C48.0547 130.102 48.3281 130.227 48.4688 130.477C48.625 130.727 48.7031 131.031 48.7031 131.391V134.555H50.7422C51.0547 134.555 51.3281 134.625 51.5625 134.766C51.7969 134.891 51.9141 135.133 51.9141 135.492C51.9141 135.852 51.7969 136.102 51.5625 136.242C51.3281 136.367 51.0547 136.43 50.7422 136.43H48.7031V143.32C48.7031 143.805 48.75 144.156 48.8438 144.375C48.9531 144.594 49.1328 144.727 49.3828 144.773C49.6328 144.82 49.9688 144.844 50.3906 144.844C50.75 144.844 51.0703 144.891 51.3516 144.984C51.6328 145.062 51.7734 145.328 51.7734 145.781C51.7734 146.125 51.6719 146.375 51.4688 146.531C51.2812 146.672 51.0312 146.742 50.7188 146.742H49.4531ZM58.7812 147.07C57.6875 147.07 56.7578 146.773 55.9922 146.18C55.2422 145.586 54.8672 144.711 54.8672 143.555C54.8672 142.695 55.0391 141.992 55.3828 141.445C55.7266 140.883 56.1875 140.445 56.7656 140.133C57.3438 139.82 57.9766 139.594 58.6641 139.453C59.3672 139.297 60.0781 139.203 60.7969 139.172C61.5312 139.125 62.2109 139.094 62.8359 139.078C62.8359 138.422 62.7812 137.875 62.6719 137.438C62.5625 137 62.3281 136.672 61.9688 136.453C61.6094 136.219 61.0547 136.102 60.3047 136.102C59.6797 136.102 59.2031 136.211 58.875 136.43C58.5469 136.648 58.2812 136.906 58.0781 137.203C57.8906 137.484 57.6875 137.734 57.4688 137.953C57.2656 138.172 56.9688 138.281 56.5781 138.281C56.2656 138.281 56 138.211 55.7812 138.07C55.5781 137.914 55.4766 137.664 55.4766 137.32C55.4766 137.055 55.5391 136.805 55.6641 136.57C55.7891 136.32 55.9297 136.094 56.0859 135.891C56.5859 135.25 57.1953 134.812 57.9141 134.578C58.6328 134.328 59.3828 134.203 60.1641 134.203C61.0859 134.203 61.8984 134.344 62.6016 134.625C63.3203 134.891 63.8828 135.328 64.2891 135.938C64.7109 136.531 64.9219 137.328 64.9219 138.328V146.016C64.9219 146.719 64.5703 147.07 63.8672 147.07C63.4609 147.07 63.1875 146.969 63.0469 146.766C62.9062 146.562 62.8359 146.312 62.8359 146.016C62.8359 145.719 62.8359 145.422 62.8359 145.125C62.3047 145.703 61.6953 146.172 61.0078 146.531C60.3359 146.891 59.5938 147.07 58.7812 147.07ZM58.9219 145.266C59.4219 145.266 59.8984 145.18 60.3516 145.008C60.8203 144.82 61.2422 144.57 61.6172 144.258C61.8359 144.07 62.0938 143.812 62.3906 143.484C62.6875 143.141 62.8359 142.805 62.8359 142.477V140.672C62.4453 140.688 62 140.711 61.5 140.742C61 140.758 60.4844 140.812 59.9531 140.906C59.4375 140.984 58.9531 141.125 58.5 141.328C58.0469 141.516 57.6797 141.789 57.3984 142.148C57.1328 142.492 57 142.938 57 143.484C57 144.109 57.1641 144.562 57.4922 144.844C57.8359 145.125 58.3125 145.266 58.9219 145.266ZM68.1328 147.07C67.7422 147.07 67.4688 146.945 67.3125 146.695C67.1562 146.445 67.0781 146.141 67.0781 145.781V135.398C67.0781 135.039 67.1562 134.75 67.3125 134.531C67.4688 134.312 67.7422 134.203 68.1328 134.203C68.5859 134.203 68.8828 134.328 69.0234 134.578C69.1641 134.828 69.2266 135.133 69.2109 135.492C69.2109 135.836 69.2109 136.164 69.2109 136.477C69.7109 135.805 70.2891 135.258 70.9453 134.836C71.6172 134.414 72.3828 134.203 73.2422 134.203C74.5703 134.203 75.5156 134.602 76.0781 135.398C76.6406 136.18 76.9219 137.188 76.9219 138.422V145.781C76.9219 146.156 76.8438 146.469 76.6875 146.719C76.5312 146.953 76.25 147.07 75.8438 147.07C75.4531 147.07 75.1797 146.945 75.0234 146.695C74.8672 146.445 74.7891 146.141 74.7891 145.781V138.797C74.7891 138.328 74.7344 137.891 74.625 137.484C74.5156 137.078 74.3203 136.75 74.0391 136.5C73.7578 136.234 73.3438 136.102 72.7969 136.102C71.7969 136.102 70.9531 136.484 70.2656 137.25C70 137.547 69.7578 137.883 69.5391 138.258C69.3203 138.617 69.2109 139.008 69.2109 139.43V145.781C69.2109 146.156 69.1328 146.469 68.9766 146.719C68.8203 146.953 68.5391 147.07 68.1328 147.07ZM82.7578 147.07C81.4297 147.07 80.4844 146.68 79.9219 145.898C79.3594 145.102 79.0781 144.086 79.0781 142.852V135.492C79.0781 135.117 79.1562 134.812 79.3125 134.578C79.4688 134.328 79.75 134.203 80.1562 134.203C80.5625 134.203 80.8359 134.328 80.9766 134.578C81.1328 134.828 81.2109 135.133 81.2109 135.492V142.5C81.2109 142.953 81.2656 143.391 81.375 143.812C81.4844 144.219 81.6797 144.547 81.9609 144.797C82.2578 145.047 82.6719 145.172 83.2031 145.172C84.2188 145.172 85.0703 144.789 85.7578 144.023C86.0234 143.727 86.2578 143.391 86.4609 143.016C86.6797 142.641 86.7891 142.25 86.7891 141.844V135.492C86.7891 135.117 86.8672 134.812 87.0234 134.578C87.1797 134.328 87.4609 134.203 87.8672 134.203C88.2734 134.203 88.5469 134.328 88.6875 134.578C88.8438 134.828 88.9219 135.133 88.9219 135.492V145.898C88.9219 146.258 88.8359 146.547 88.6641 146.766C88.4922 146.969 88.2188 147.07 87.8438 147.07C87.4062 147.07 87.1172 146.945 86.9766 146.695C86.8359 146.445 86.7656 146.141 86.7656 145.781C86.7812 145.422 86.7891 145.094 86.7891 144.797C86.2891 145.469 85.7031 146.016 85.0312 146.438C84.375 146.859 83.6172 147.07 82.7578 147.07ZM92.1562 147.07C91.7656 147.07 91.4922 146.953 91.3359 146.719C91.1797 146.469 91.1016 146.164 91.1016 145.805V129.961C91.1016 129.602 91.1797 129.305 91.3359 129.07C91.4922 128.82 91.7656 128.695 92.1562 128.695C92.5625 128.695 92.8359 128.82 92.9766 129.07C93.1328 129.305 93.2109 129.602 93.2109 129.961V140.062L98.9062 134.625C99.0312 134.516 99.1641 134.422 99.3047 134.344C99.4453 134.25 99.5938 134.203 99.75 134.203C100.406 134.203 100.734 134.516 100.734 135.141C100.734 135.297 100.68 135.445 100.57 135.586C100.477 135.711 100.375 135.828 100.266 135.938L96.7266 139.219L100.992 145.289C101.07 145.398 101.141 145.523 101.203 145.664C101.266 145.789 101.297 145.922 101.297 146.062C101.297 146.734 100.945 147.07 100.242 147.07C100.023 147.07 99.8203 147 99.6328 146.859C99.4609 146.719 99.3125 146.562 99.1875 146.391L95.25 140.602L93.2109 142.5V145.805C93.2109 146.164 93.1328 146.469 92.9766 146.719C92.8359 146.953 92.5625 147.07 92.1562 147.07ZM108 131.719C106.984 131.719 106.477 131.211 106.477 130.195C106.477 129.18 106.992 128.672 108.023 128.672C108.43 128.672 108.781 128.828 109.078 129.141C109.375 129.438 109.523 129.789 109.523 130.195C109.523 131.211 109.016 131.719 108 131.719ZM107.977 147.07C107.57 147.07 107.281 146.945 107.109 146.695C106.953 146.445 106.875 146.133 106.875 145.758V135.656C106.875 135.281 106.953 134.969 107.109 134.719C107.281 134.453 107.57 134.32 107.977 134.32C108.383 134.32 108.664 134.453 108.82 134.719C108.992 134.969 109.078 135.281 109.078 135.656V145.758C109.078 146.133 108.992 146.445 108.82 146.695C108.664 146.945 108.383 147.07 107.977 147.07ZM128.062 147.07C127.656 147.07 127.367 146.945 127.195 146.695C127.039 146.43 126.961 146.109 126.961 145.734V130.875C126.961 130.359 127.141 129.922 127.5 129.562C127.859 129.203 128.297 129.023 128.812 129.023H131.461C131.992 129.023 132.602 129.062 133.289 129.141C133.992 129.203 134.578 129.367 135.047 129.633C135.844 130.086 136.414 130.68 136.758 131.414C137.117 132.148 137.297 132.969 137.297 133.875C137.297 135.562 136.852 136.844 135.961 137.719C135.07 138.594 133.781 139.039 132.094 139.055H129.164V145.734C129.164 146.109 129.078 146.43 128.906 146.695C128.75 146.945 128.469 147.07 128.062 147.07ZM129.164 137.062H131.344C132.516 137.062 133.422 136.852 134.062 136.43C134.703 135.992 135.023 135.133 135.023 133.852C135.023 132.742 134.719 131.992 134.109 131.602C133.516 131.211 132.703 131.016 131.672 131.016H130.102C129.477 131.016 129.164 131.328 129.164 131.953V137.062ZM142.781 147.07C141.688 147.07 140.758 146.773 139.992 146.18C139.242 145.586 138.867 144.711 138.867 143.555C138.867 142.695 139.039 141.992 139.383 141.445C139.727 140.883 140.188 140.445 140.766 140.133C141.344 139.82 141.977 139.594 142.664 139.453C143.367 139.297 144.078 139.203 144.797 139.172C145.531 139.125 146.211 139.094 146.836 139.078C146.836 138.422 146.781 137.875 146.672 137.438C146.562 137 146.328 136.672 145.969 136.453C145.609 136.219 145.055 136.102 144.305 136.102C143.68 136.102 143.203 136.211 142.875 136.43C142.547 136.648 142.281 136.906 142.078 137.203C141.891 137.484 141.688 137.734 141.469 137.953C141.266 138.172 140.969 138.281 140.578 138.281C140.266 138.281 140 138.211 139.781 138.07C139.578 137.914 139.477 137.664 139.477 137.32C139.477 137.055 139.539 136.805 139.664 136.57C139.789 136.32 139.93 136.094 140.086 135.891C140.586 135.25 141.195 134.812 141.914 134.578C142.633 134.328 143.383 134.203 144.164 134.203C145.086 134.203 145.898 134.344 146.602 134.625C147.32 134.891 147.883 135.328 148.289 135.938C148.711 136.531 148.922 137.328 148.922 138.328V146.016C148.922 146.719 148.57 147.07 147.867 147.07C147.461 147.07 147.188 146.969 147.047 146.766C146.906 146.562 146.836 146.312 146.836 146.016C146.836 145.719 146.836 145.422 146.836 145.125C146.305 145.703 145.695 146.172 145.008 146.531C144.336 146.891 143.594 147.07 142.781 147.07ZM142.922 145.266C143.422 145.266 143.898 145.18 144.352 145.008C144.82 144.82 145.242 144.57 145.617 144.258C145.836 144.07 146.094 143.812 146.391 143.484C146.688 143.141 146.836 142.805 146.836 142.477V140.672C146.445 140.688 146 140.711 145.5 140.742C145 140.758 144.484 140.812 143.953 140.906C143.438 140.984 142.953 141.125 142.5 141.328C142.047 141.516 141.68 141.789 141.398 142.148C141.133 142.492 141 142.938 141 143.484C141 144.109 141.164 144.562 141.492 144.844C141.836 145.125 142.312 145.266 142.922 145.266ZM153.961 147.07C153.57 147.07 153.297 146.945 153.141 146.695C152.984 146.445 152.906 146.141 152.906 145.781V135.492C152.906 135.117 152.984 134.812 153.141 134.578C153.297 134.328 153.578 134.203 153.984 134.203C154.406 134.203 154.688 134.32 154.828 134.555C154.969 134.789 155.039 135.07 155.039 135.398C155.039 135.711 155.039 136.016 155.039 136.312C155.492 135.734 156.008 135.242 156.586 134.836C157.18 134.414 157.859 134.203 158.625 134.203C158.969 134.203 159.234 134.281 159.422 134.438C159.625 134.594 159.727 134.852 159.727 135.211C159.727 135.633 159.57 135.922 159.258 136.078C158.961 136.234 158.633 136.336 158.273 136.383C157.805 136.445 157.32 136.602 156.82 136.852C156.32 137.102 155.898 137.43 155.555 137.836C155.211 138.227 155.039 138.695 155.039 139.242V145.781C155.039 146.156 154.961 146.469 154.805 146.719C154.648 146.953 154.367 147.07 153.961 147.07ZM164.156 147.07C163.766 147.07 163.492 146.953 163.336 146.719C163.18 146.469 163.102 146.164 163.102 145.805V129.961C163.102 129.602 163.18 129.305 163.336 129.07C163.492 128.82 163.766 128.695 164.156 128.695C164.562 128.695 164.836 128.82 164.977 129.07C165.133 129.305 165.211 129.602 165.211 129.961V140.062L170.906 134.625C171.031 134.516 171.164 134.422 171.305 134.344C171.445 134.25 171.594 134.203 171.75 134.203C172.406 134.203 172.734 134.516 172.734 135.141C172.734 135.297 172.68 135.445 172.57 135.586C172.477 135.711 172.375 135.828 172.266 135.938L168.727 139.219L172.992 145.289C173.07 145.398 173.141 145.523 173.203 145.664C173.266 145.789 173.297 145.922 173.297 146.062C173.297 146.734 172.945 147.07 172.242 147.07C172.023 147.07 171.82 147 171.633 146.859C171.461 146.719 171.312 146.562 171.188 146.391L167.25 140.602L165.211 142.5V145.805C165.211 146.164 165.133 146.469 164.977 146.719C164.836 146.953 164.562 147.07 164.156 147.07Z" fill="white"/>
<path fill-rule="evenodd" clip-rule="evenodd" d="M125.421 16.9961C128.575 22.8579 125.995 29.888 122.953 35.7955C120.651 40.2673 116.083 42.4683 111.385 44.2597C106.89 45.9738 101.482 48.4234 97.7101 45.4215C94.1025 42.5503 97.2166 36.8825 96.4124 32.3436C95.5875 27.6883 91.2429 23.63 93.0781 19.2795C95.6702 13.1347 100.608 7.09804 107.26 6.62839C114.566 6.11259 121.944 10.5353 125.421 16.9961Z" fill="#F6CACA"/>
<path fill-rule="evenodd" clip-rule="evenodd" d="M127.169 78.7396C121.182 81.6478 114.265 78.7785 108.489 75.4949C104.116 73.0093 102.106 68.3534 100.511 63.5854C98.9852 59.0231 96.762 53.5183 99.9178 49.8741C102.936 46.3887 108.47 49.7352 113.038 49.1199C117.724 48.4888 121.959 44.3163 126.229 46.3304C132.261 49.175 138.088 54.3586 138.281 61.0246C138.494 68.3456 133.769 75.5343 127.169 78.7396Z" fill="#F6CACA"/>
<path fill-rule="evenodd" clip-rule="evenodd" d="M62.6762 70.6414C60.853 64.2394 64.8809 57.9263 69.1185 52.8088C72.3263 48.9349 77.2606 47.7651 82.2333 47.0231C86.9914 46.3131 92.7989 45.0806 95.8391 48.8218C98.7468 52.4 94.4894 57.2679 94.3013 61.8736C94.1083 66.5975 97.4812 71.4933 94.7555 75.3489C90.9057 80.7946 84.7883 85.6316 78.1901 84.6633C70.9437 83.5999 64.6856 77.6974 62.6762 70.6414Z" fill="#F6CACA"/>
<path fill-rule="evenodd" clip-rule="evenodd" d="M65.4333 14.4425C71.411 11.514 78.3378 14.3597 84.1252 17.6236C88.5061 20.0943 90.5316 24.7433 92.1428 29.5059C93.6845 34.063 95.9264 39.5602 92.783 43.2151C89.7766 46.7108 84.2314 43.3832 79.6652 44.014C74.9819 44.661 70.7611 48.8479 66.4836 46.8483C60.442 44.0242 54.5977 38.8605 54.3817 32.1952C54.1444 24.875 58.8449 17.6702 65.4333 14.4425Z" fill="#F6CACA"/>
<path fill-rule="evenodd" clip-rule="evenodd" d="M102.919 41.3981C104.426 42.7949 105.939 44.2896 106.459 46.2504C107.003 48.3015 106.797 50.5149 105.815 52.3187C104.855 54.0808 102.977 54.9898 101.195 55.9154C99.3751 56.8608 97.5041 58.1117 95.4311 57.7127C93.3655 57.3152 91.9123 55.4714 90.5101 53.8592C89.2086 52.3627 88.224 50.696 87.6889 48.8108C87.1034 46.7481 86.433 44.4899 87.3172 42.6101C88.2052 40.7223 90.3225 39.8464 92.267 39.078C94.0768 38.3628 96.03 37.9698 97.9833 38.3952C99.8892 38.8103 101.467 40.0525 102.919 41.3981Z" fill="white"/>
</svg>
