<svg width="97" height="90" viewBox="0 0 97 90" fill="none" xmlns="http://www.w3.org/2000/svg">
<path fill-rule="evenodd" clip-rule="evenodd" d="M77.4205 16.9961C80.5745 22.8579 77.9946 29.888 74.9534 35.7955C72.6513 40.2673 68.0828 42.4683 63.385 44.2597C58.8899 45.9738 53.4821 48.4234 49.7101 45.4215C46.1025 42.5503 49.2166 36.8825 48.4124 32.3436C47.5875 27.6883 43.2429 23.63 45.0781 19.2795C47.6702 13.1347 52.6076 7.09804 59.2599 6.62839C66.5658 6.11259 73.9443 10.5353 77.4205 16.9961Z" fill="#004E98"/>
<path fill-rule="evenodd" clip-rule="evenodd" d="M79.1695 78.7396C73.1818 81.6478 66.2648 78.7785 60.4885 75.4949C56.1161 73.0093 54.1064 68.3534 52.5114 63.5854C50.9852 59.0231 48.762 53.5183 51.9178 49.8741C54.9361 46.3887 60.4699 49.7352 65.0382 49.1199C69.7238 48.4888 73.9588 44.3163 78.2294 46.3304C84.2614 49.175 90.0881 54.3586 90.2814 61.0246C90.4938 68.3456 85.7688 75.5343 79.1695 78.7396Z" fill="#004E98"/>
<path fill-rule="evenodd" clip-rule="evenodd" d="M14.6762 70.6414C12.853 64.2394 16.8809 57.9263 21.1185 52.8088C24.3263 48.9349 29.2606 47.7651 34.2333 47.0231C38.9914 46.3131 44.7989 45.0806 47.8391 48.8218C50.7468 52.4 46.4894 57.2679 46.3013 61.8736C46.1083 66.5975 49.4812 71.4933 46.7555 75.3489C42.9057 80.7946 36.7883 85.6316 30.1901 84.6633C22.9437 83.5999 16.6856 77.6974 14.6762 70.6414Z" fill="#004E98"/>
<path fill-rule="evenodd" clip-rule="evenodd" d="M17.4333 14.4425C23.411 11.514 30.3378 14.3597 36.1252 17.6236C40.5061 20.0943 42.5316 24.7433 44.1428 29.5059C45.6845 34.063 47.9264 39.5602 44.783 43.2151C41.7766 46.7108 36.2314 43.3832 31.6652 44.014C26.9819 44.661 22.7611 48.8479 18.4836 46.8483C12.442 44.0242 6.59771 38.8605 6.38169 32.1952C6.14444 24.875 10.8449 17.6702 17.4333 14.4425Z" fill="#004E98"/>
<path fill-rule="evenodd" clip-rule="evenodd" d="M54.9188 41.3981C56.426 42.7949 57.9393 44.2896 58.4592 46.2504C59.0031 48.3015 58.7972 50.5149 57.8147 52.3187C56.855 54.0808 54.9766 54.9898 53.1949 55.9154C51.3751 56.8608 49.5041 58.1117 47.4311 57.7127C45.3655 57.3152 43.9123 55.4714 42.5101 53.8592C41.2086 52.3627 40.224 50.696 39.6889 48.8108C39.1034 46.7481 38.433 44.4899 39.3172 42.6101C40.2052 40.7223 42.3225 39.8464 44.267 39.078C46.0768 38.3628 48.03 37.9698 49.9833 38.3952C51.8892 38.8103 53.4669 40.0525 54.9188 41.3981Z" fill="#F6CACA"/>
</svg>
